<svg xmlns="http://www.w3.org/2000/svg" viewBox="0 0 24 24" role="img" aria-label="GitHub">
  <circle cx="12" cy="12" r="9" fill="#ffffff"/>
  <path d="M12 6.4a5.7 5.7 0 00-1.8 11.1v-1.8c-2.1.4-2.6-1-2.6-1-.3-.8-.8-1-1-1.1-.8-.5 0-.5 0-.5.9.1 1.4.9 1.5 1 .8 1.4 2 1 2.5.8.1-.6.3-1 .6-1.2-1.7-.2-3.4-.9-3.4-3.8 0-.9.3-1.6.8-2.2-.1-.2-.4-1.1.1-2.2 0 0 .7-.2 2.3.8a8 8 0 014.2 0c1.6-1 2.3-.8 2.3-.8.5 1.1.2 2 .1 2.2.5.6.8 1.3.8 2.2 0 2.9-1.7 3.6-3.4 3.8.3.2.6.8.6 1.7v2.5A5.7 5.7 0 0012 6.4z" fill="#5b3a24"/>
  <circle cx="12" cy="12" r="9" fill="none" stroke="#5b3a24" stroke-width="1.4"/>
</svg>
